HIERARCHY
ROOT Pelvis
{
	OFFSET 0.000000 0.000000 0.000000
	CHANNELS 6 Xposition Yposition Zposition Xrotation Yrotation Zrotation
	JOINT LeftUpLeg_virtual
	{
		OFFSET 0.000000 0.000000 0.000000
		CHANNELS 3 Xrotation Yrotation Zrotation
		JOINT LeftUpLeg
		{
			OFFSET 18.735201 -5.666702 -4.541200
			CHANNELS 3 Xrotation Yrotation Zrotation
			JOINT LeftLeg
			{
				OFFSET -0.021200 -31.938179 0.493100
				CHANNELS 3 Xrotation Yrotation Zrotation
				JOINT LeftFoot
				{
					OFFSET 0.021200 -31.938179 -4.336299
					CHANNELS 3 Xrotation Yrotation Zrotation
					JOINT LeftToeBase
					{
						OFFSET 0.943001 -26.722000 15.023500
						CHANNELS 3 Xrotation Yrotation Zrotation
						End Site
						{
							OFFSET 0 0 0
						}
					}
				}
			}
		}
	}
	JOINT RightUpLeg_virtual
	{
		OFFSET 0.000000 0.000000 0.000000
		CHANNELS 3 Xrotation Yrotation Zrotation
		JOINT RightUpLeg
		{
			OFFSET -18.735201 -5.666702 -4.541200
			CHANNELS 3 Xrotation Yrotation Zrotation
			JOINT RightLeg
			{
				OFFSET 0.018946 -31.938133 0.493100
				CHANNELS 3 Xrotation Yrotation Zrotation
				JOINT RightFoot
				{
					OFFSET -0.018946 -31.938126 -4.336299
					CHANNELS 3 Xrotation Yrotation Zrotation
					JOINT RightToeBase
					{
						OFFSET -0.943001 -26.722004 15.023500
						CHANNELS 3 Xrotation Yrotation Zrotation
						End Site
						{
							OFFSET 0 0 0
						}
					}
				}
			}
		}
	}
	JOINT Hips_virtual
	{
		OFFSET 0.000000 0.000000 0.000000
		CHANNELS 3 Xrotation Yrotation Zrotation
		JOINT Hips
		{
			OFFSET -0.000000 -0.000000 -0.000000
			CHANNELS 3 Xrotation Yrotation Zrotation
			JOINT Spine
			{
				OFFSET 0.000000 10.199997 -0.299500
				CHANNELS 3 Xrotation Yrotation Zrotation
				JOINT Spine1
				{
					OFFSET 0.000000 11.900002 -1.516600
					CHANNELS 3 Xrotation Yrotation Zrotation
					JOINT Spine2
					{
						OFFSET 0.000000 13.600006 -2.842500
						CHANNELS 3 Xrotation Yrotation Zrotation
						JOINT Neck_virtual
						{
							OFFSET 0.000000 0.000000 0.000000
							CHANNELS 3 Xrotation Yrotation Zrotation
							JOINT Neck
							{
								OFFSET 0.000000 9.624100 -2.890100
								CHANNELS 3 Xrotation Yrotation Zrotation
								JOINT Head
								{
									OFFSET 0.000000 14.068802 -1.351900
									CHANNELS 3 Xrotation Yrotation Zrotation
									End Site
									{
										OFFSET 0 0 0
									}
								}
							}
						}
						JOINT LeftShoulder_virtual
						{
							OFFSET 0.000000 0.000000 0.000000
							CHANNELS 3 Xrotation Yrotation Zrotation
							JOINT LeftShoulder
							{
								OFFSET 15.263000 10.923401 -0.547700
								CHANNELS 3 Xrotation Yrotation Zrotation
								JOINT LeftArm
								{
									OFFSET 25.438599 -2.830597 -13.032500
									CHANNELS 3 Xrotation Yrotation Zrotation
									JOINT LeftForeArm
									{
										OFFSET 29.960503 0.000000 0.000000
										CHANNELS 3 Xrotation Yrotation Zrotation
										JOINT LeftHand
										{
											OFFSET 27.849251 0.000000 0.000000
											CHANNELS 3 Xrotation Yrotation Zrotation
											End Site
											{
												OFFSET 0 0 0
											}
										}
									}
								}
							}
						}
						JOINT RightShoulder_virtual
						{
							OFFSET 0.000000 0.000000 0.000000
							CHANNELS 3 Xrotation Yrotation Zrotation
							JOINT RightShoulder
							{
								OFFSET -15.263000 10.923401 -0.547700
								CHANNELS 3 Xrotation Yrotation Zrotation
								JOINT RightArm
								{
									OFFSET -25.438599 -2.830597 -13.032500
									CHANNELS 3 Xrotation Yrotation Zrotation
									JOINT RightForeArm
									{
										OFFSET -29.960503 0.000000 0.000000
										CHANNELS 3 Xrotation Yrotation Zrotation
										JOINT RightHand
										{
											OFFSET -27.849251 0.000000 0.000000
											CHANNELS 3 Xrotation Yrotation Zrotation
											End Site
											{
												OFFSET 0 0 0
											}
										}
									}
								}
							}
						}
					}
				}
			}
		}
	}
}
MOTION
Frames: 11
Frame Time: 0.03333333
-3.526525 78.410515 3.057213 0.000000 0.000000 0.000000 11.660447 -49.374413 11.268448 -69.006726 20.606928 47.787938 51.256332 -22.124248 3.397129 2.960948 1.488360 -15.125215 0.000000 0.000000 0.000000 11.660447 -49.374413 11.268448 -33.115988 3.850950 -30.939575 58.819663 4.953494 -6.674914 -30.774660 -6.443305 30.151573 0.000000 0.000000 0.000000 11.660447 -49.374413 11.268448 0.000000 -0.000001 0.000000 10.970015 2.720516 -2.032964 6.100712 5.566548 -4.284696 0.000000 0.000000 0.000000 -5.786925 6.328130 -3.046183 0.458487 1.873441 -0.022645 0.000000 0.000000 0.000000 -5.786925 6.328130 -3.046183 -1.915073 -16.511786 -2.939003 -10.486669 2.625046 -45.366345 -22.934643 -26.042294 -16.052416 0.000000 0.000000 0.000000 -5.786925 6.328130 -3.046183 -5.102373 24.651548 1.530439 6.852342 -35.149963 57.689233 -21.079521 44.888918 20.017003 0.000000 0.000000 0.000000 
-3.269072 78.519501 2.894983 0.000000 0.000000 0.000000 11.701169 -49.255964 11.093537 -69.294673 20.547734 47.675427 50.921205 -22.189541 3.377305 3.418911 1.485500 -14.936183 0.000000 0.000000 0.000000 11.701169 -49.255964 11.093537 -33.132046 3.762815 -30.572200 58.467895 4.680745 -6.767265 -30.495715 -6.576982 30.236728 0.000000 0.000000 0.000000 11.701169 -49.255964 11.093537 0.000000 0.000002 0.000000 10.652879 2.757297 -1.707516 6.270522 5.497042 -4.598443 0.000000 0.000000 0.000000 -5.595392 6.320238 -3.336134 0.518222 1.904052 -0.086765 0.000000 0.000000 0.000000 -5.595392 6.320238 -3.336134 -1.910397 -16.163883 -3.090428 -12.030261 0.880588 -45.319169 -21.770895 -23.471154 -14.157652 0.000000 0.000000 0.000000 -5.595392 6.320238 -3.336134 -5.012409 24.293275 1.216172 6.254680 -34.836458 57.425649 -21.507390 44.701153 20.437193 0.000000 0.000000 0.000000 
-3.010861 78.640533 2.678036 0.000000 0.000000 0.000000 11.542964 -49.209536 10.994534 -69.271888 20.807741 47.452388 50.317413 -22.325387 3.336305 3.971502 1.585216 -14.796859 0.000000 0.000000 0.000000 11.542964 -49.209536 10.994534 -33.218232 3.817218 -30.425221 58.402414 4.698701 -6.865509 -30.383967 -6.746287 30.158878 0.000000 0.000000 0.000000 11.542964 -49.209536 10.994534 0.000001 0.000000 0.000000 10.770993 2.680074 -1.852896 6.253150 5.455810 -4.730124 0.000000 0.000000 0.000000 -5.604863 6.319128 -3.448274 0.571059 1.962407 -0.114034 0.000000 0.000000 0.000000 -5.604863 6.319128 -3.448274 -1.950320 -16.377042 -3.316429 -12.793725 0.478092 -45.036177 -20.515383 -22.352267 -13.137835 0.000000 0.000000 0.000000 -5.604863 6.319128 -3.448274 -4.920683 23.574275 1.114867 5.639821 -34.678073 56.669670 -22.473129 45.269637 21.754038 0.000000 0.000000 0.000000 
-2.755543 78.763962 2.417755 0.000000 0.000000 0.000000 11.406303 -49.308256 10.931030 -69.154286 21.071948 47.291776 49.665683 -22.445943 3.291720 4.513366 1.771078 -14.745055 0.000000 0.000000 0.000000 11.406303 -49.308256 10.931030 -33.549852 3.747842 -30.370382 58.445915 4.972313 -6.953056 -30.332331 -6.847208 29.924131 0.000000 0.000000 0.000000 11.406303 -49.308256 10.931030 0.000000 0.000000 0.000000 10.903934 2.568030 -2.004272 6.255484 5.389561 -4.873398 0.000000 0.000000 0.000000 -5.586798 6.304851 -3.562657 0.591055 2.092662 -0.285636 0.000000 0.000000 0.000000 -5.586798 6.304851 -3.562657 -2.019131 -15.755245 -4.014505 -14.105702 -0.623448 -44.437638 -18.714585 -20.851331 -11.947967 0.000000 0.000000 0.000000 -5.586798 6.304851 -3.562657 -4.713508 23.018407 0.781703 5.134856 -34.583102 56.017025 -23.493894 45.872114 23.282993 0.000000 0.000000 0.000000 
-2.540800 78.870506 2.082964 0.000000 0.000000 0.000000 11.474288 -49.889454 11.062911 -68.825187 21.252391 47.377542 49.056153 -22.277352 3.260054 4.865138 2.040858 -14.976967 0.000000 0.000000 0.000000 11.474288 -49.889454 11.062911 -34.226655 4.179471 -30.060363 58.592614 5.467469 -7.068450 -30.076175 -6.935836 29.732865 0.000000 0.000000 0.000000 11.474288 -49.889454 11.062911 0.000000 -0.000001 0.000000 10.966516 2.442656 -2.070560 6.354288 5.276279 -5.097345 0.000000 0.000000 0.000000 -5.456691 6.268704 -3.745265 0.625020 2.252094 -0.397815 0.000000 0.000000 0.000000 -5.456691 6.268704 -3.745265 -1.995280 -14.974999 -4.449677 -15.399638 -1.800134 -44.184825 -16.719350 -18.848414 -10.461576 0.000000 0.000000 0.000000 -5.456691 6.268704 -3.745265 -4.584627 21.996479 0.859058 3.917472 -34.011077 54.545764 -24.794673 47.064300 25.390639 0.000000 0.000000 0.000000 
-2.385978 78.947586 1.646940 0.000000 0.000000 0.000000 11.817936 -51.189700 11.455696 -68.178607 21.298838 47.853067 48.561064 -21.638763 3.253407 4.918116 2.381339 -15.617082 0.000000 0.000000 0.000000 11.817936 -51.189700 11.455696 -35.514235 5.068691 -29.761429 58.660117 6.682241 -7.168027 -29.018499 -6.929463 30.129399 0.000000 0.000000 0.000000 11.817936 -51.189700 11.455696 0.000000 -0.000001 0.000001 10.968470 2.305124 -2.066468 6.476592 5.132122 -5.328441 0.000000 0.000000 0.000000 -5.296075 6.214253 -3.930847 0.654421 2.482295 -0.610294 0.000000 0.000000 0.000000 -5.296075 6.214253 -3.930847 -2.015813 -14.208175 -5.194971 -16.027695 -2.045548 -43.591138 -14.809459 -17.988044 -9.625032 0.000000 0.000000 0.000000 -5.296075 6.214253 -3.930847 -4.353525 21.112402 0.723915 2.380096 -32.998758 52.973451 -26.151848 48.354352 27.701407 0.000000 0.000000 0.000000 
-2.259903 79.033356 1.153522 0.000000 0.000000 0.000000 12.452547 -53.116161 12.118669 -67.205872 21.315069 48.636008 48.108147 -20.549644 3.267697 4.725052 2.752835 -16.590757 0.000000 0.000000 0.000000 12.452547 -53.116161 12.118669 -37.333363 6.156126 -29.144868 58.725680 8.183929 -7.273649 -27.748525 -6.645102 30.195040 0.000000 0.000000 0.000000 12.452547 -53.116161 12.118669 0.000000 -0.000002 0.000000 10.974548 2.144760 -2.056444 6.622247 4.954796 -5.562617 0.000000 0.000000 0.000000 -5.105697 6.139124 -4.118082 0.658366 2.754339 -0.802381 0.000000 0.000000 0.000000 -5.105697 6.139124 -4.118082 -1.981545 -13.332536 -5.802921 -15.999505 -1.606224 -43.044037 -13.164496 -18.160944 -9.218388 0.000000 0.000000 0.000000 -5.105697 6.139124 -4.118082 -4.212519 21.033445 1.004113 0.695062 -32.792554 50.817608 -27.747821 50.323854 30.421577 0.000000 0.000000 0.000000 
-2.159180 79.114716 0.601864 0.000000 0.000000 0.000000 13.420788 -55.573435 13.099116 -65.929227 21.355420 49.674979 47.659995 -19.041966 3.299980 4.369388 3.118366 -17.877013 0.000000 0.000000 0.000000 13.420788 -55.573435 13.099116 -39.546611 7.403088 -28.229312 58.712320 9.832563 -7.343837 -26.152062 -6.240417 30.197759 0.000000 0.000000 0.000000 13.420788 -55.573435 13.099116 0.000000 -0.000001 0.000000 10.986214 1.961297 -2.043340 6.791152 4.742065 -5.795877 0.000000 0.000000 0.000000 -4.886385 6.040802 -4.305618 0.614320 3.055299 -0.994379 0.000000 0.000000 0.000000 -4.886385 6.040802 -4.305618 -1.905464 -12.288068 -6.402461 -15.552115 -0.697354 -42.440057 -11.847838 -18.918275 -9.054797 0.000000 0.000000 0.000000 -4.886385 6.040802 -4.305618 -3.907348 19.336860 1.080545 -2.074925 -29.817047 48.378602 -28.335262 51.617099 31.991185 0.000000 0.000000 0.000000 
-2.067553 79.203812 0.009392 0.000000 0.000000 0.000000 14.799562 -58.461959 14.473832 -64.375674 21.548245 50.806328 47.349371 -19.820178 3.227136 3.905020 6.180080 -19.344393 0.000000 0.000000 0.000000 14.799562 -58.461959 14.473832 -42.010185 8.697787 -26.893241 58.554426 11.482795 -7.397464 -24.324175 -5.751370 29.908333 0.000000 0.000000 0.000000 14.799562 -58.461959 14.473832 0.000001 -0.000003 0.000000 11.004760 1.754649 -2.024748 6.983141 4.491693 -6.024192 0.000000 0.000000 0.000000 -4.638925 5.917008 -4.492120 0.481168 3.396322 -1.194861 0.000000 0.000000 0.000000 -4.638925 5.917008 -4.492120 -1.767452 -10.956388 -6.848841 -15.155339 0.099824 -42.101259 -10.572625 -19.057739 -8.624073 0.000000 0.000000 0.000000 -4.638925 5.917008 -4.492120 -3.613088 18.723791 1.244314 -4.736854 -27.854374 45.593695 -29.494707 52.631184 34.309232 0.000000 0.000000 0.000000 
-1.981254 79.281616 -0.616930 0.000000 0.000000 0.000000 16.714637 -61.675939 16.371067 -62.551330 21.888205 52.094386 46.860094 -19.078352 3.212524 3.443528 7.972605 -21.061160 0.000000 0.000000 0.000000 16.714637 -61.675939 16.371067 -44.774981 9.862936 -25.282652 58.281198 13.353157 -7.363816 -22.387437 -5.105005 29.378874 0.000000 0.000000 0.000000 16.714637 -61.675939 16.371067 0.000000 -0.000002 0.000000 11.031738 1.524251 -2.002318 7.198102 4.201438 -6.243557 0.000000 0.000000 0.000000 -4.364124 5.765162 -4.676237 0.395375 3.702646 -1.342421 0.000000 0.000000 0.000000 -4.364124 5.765162 -4.676237 -1.631421 -9.816466 -7.394707 -14.429958 1.351115 -41.630925 -9.278490 -19.606330 -8.354460 0.000000 0.000000 0.000000 -4.364124 5.765162 -4.676237 -3.207092 18.129316 1.155403 -7.657544 -25.490474 42.760693 -29.840816 53.000308 35.960020 0.000000 0.000000 0.000000 
-1.862626 79.394196 -1.248110 0.000000 0.000000 0.000000 19.367425 -65.100965 18.985354 -60.629267 22.579166 53.481624 46.354588 -18.161295 3.196088 2.917142 9.705351 -22.783529 0.000000 0.000000 0.000000 19.367425 -65.100965 18.985354 -47.542136 10.731507 -23.272789 57.989583 14.883718 -7.271525 -20.972304 -4.341687 28.048373 0.000000 0.000000 0.000000 19.367425 -65.100965 18.985354 0.000000 0.000002 0.000000 11.068354 1.269451 -1.965928 7.435950 3.869152 -6.450016 0.000000 0.000000 0.000000 -4.062810 5.582869 -4.856650 0.293757 3.990702 -1.402726 0.000000 0.000000 0.000000 -4.062810 5.582869 -4.856650 -1.438118 -8.529047 -7.720708 -13.733665 2.442167 -41.562705 -8.004723 -19.812487 -7.919387 0.000000 0.000000 0.000000 -4.062810 5.582869 -4.856650 -2.804897 17.511217 1.219129 -11.026034 -22.723824 39.514618 -29.815425 53.229426 37.711482 0.000000 0.000000 0.000000 
